# xmcd CD database file
#
# Track frame offsets:
#	150
#	2703
#	24631
#	130999
#	140833
#	143283
#	173507
#	193012
#	218951
#	238215
#	249867
#	269934
#
# Disc length: 3749 seconds
#
# Revision: 0
# Processed by: cddbd v1.5.1PL2 Copyright (c) Steve Scherf et al.
# Submitted via: CDex 1.51
#
DISCID=b00ea30c
DTITLE=Cheri Huber - Unconditional Self Acceptance #3
DYEAR=2005
DGENRE=New Age
TTITLE0=Introduction: Your Emotional Autobiography
TTITLE1=The Foundation of Your Emotional Responses
TTITLE2=Guided Exercise to Examine Your Emotional History
TTITLE3=This Session's Assignment
TTITLE4=Introduction: Awareness Practices
TTITLE5=The Practice of Awareness
TTITLE6=Awareness Practice #1
TTITLE7=Controllling Our Attention
TTITLE8=Awareness Practice #2
TTITLE9=Bringing Your Awareness Into the Present
TTITLE10=Present Moment Awareness Exercise
TTITLE11=In The Mind Of Meditation
EXTD=YEAR: 2005
EXTT0=
EXTT1=
EXTT2=
EXTT3=
EXTT4=
EXTT5=
EXTT6=
EXTT7=
EXTT8=
EXTT9=
EXTT10=
EXTT11=
PLAYORDER=
